<svg width="4164" height="649" viewBox="0 0 4164 649" fill="none" xmlns="http://www.w3.org/2000/svg">
<mask id="mask0_2146_62" style="mask-type:alpha" maskUnits="userSpaceOnUse" x="88" y="160" width="412" height="489">
<path d="M248.82 160.999L500 160.999L500 648.249L88.2918 648.249L248.82 485.832L248.82 160.999Z" fill="#D9D9D9"/>
</mask>
<g mask="url(#mask0_2146_62)">
<ellipse cx="246.931" cy="404.624" rx="243.625" ry="243.625" fill="#FCCD00"/>
<ellipse cx="245.04" cy="323.415" rx="162.417" ry="162.417" fill="#FFE05A"/>
<ellipse cx="245.044" cy="242.207" rx="81.2084" ry="81.2084" fill="#FDF291"/>
</g>
<mask id="mask1_2146_62" style="mask-type:alpha" maskUnits="userSpaceOnUse" x="0" y="0" width="400" height="488">
<path d="M251.18 487.251L6.10352e-05 487.251L0.000103632 0.000270256L399.433 0.000244141L251.18 162.417L251.18 487.251Z" fill="#D9D9D9"/>
</mask>
<g mask="url(#mask1_2146_62)">
<ellipse cx="253.067" cy="243.626" rx="243.625" ry="243.625" transform="rotate(-180 253.067 243.626)" fill="#028C45"/>
<ellipse cx="254.955" cy="324.834" rx="162.417" ry="162.417" transform="rotate(-180 254.955 324.834)" fill="#28B46C"/>
<ellipse cx="254.959" cy="406.043" rx="81.2084" ry="81.2084" transform="rotate(-180 254.959 406.043)" fill="#B5ECA1"/>
</g>
<path d="M877.344 318.68C898.165 323.117 914.891 333.528 927.52 349.912C940.149 365.955 946.464 384.387 946.464 405.208C946.464 435.245 935.883 459.139 914.72 476.888C893.899 494.296 864.715 503 827.168 503H659.744V143.576H821.536C858.059 143.576 886.56 151.939 907.04 168.664C927.861 185.389 938.272 208.088 938.272 236.76C938.272 257.923 932.64 275.501 921.376 289.496C910.453 303.491 895.776 313.219 877.344 318.68ZM747.296 288.984H804.64C818.976 288.984 829.899 285.912 837.408 279.768C845.259 273.283 849.184 263.896 849.184 251.608C849.184 239.32 845.259 229.933 837.408 223.448C829.899 216.963 818.976 213.72 804.64 213.72H747.296V288.984ZM811.808 432.344C826.485 432.344 837.749 429.101 845.6 422.616C853.792 415.789 857.888 406.061 857.888 393.432C857.888 380.803 853.621 370.904 845.088 363.736C836.896 356.568 825.461 352.984 810.784 352.984H747.296V432.344H811.808ZM1084.8 213.72V286.424H1202.04V354.008H1084.8V432.856H1217.4V503H997.244V143.576H1217.4V213.72H1084.8ZM1595.78 503H1508.23L1361.8 281.304V503H1274.24V143.576H1361.8L1508.23 366.296V143.576H1595.78V503ZM1879.4 286.936V359.64H1654.12V286.936H1879.4ZM1941.4 322.776C1941.4 287.277 1949.08 255.704 1964.44 228.056C1979.8 200.067 2001.13 178.392 2028.44 163.032C2056.08 147.331 2087.32 139.48 2122.13 139.48C2164.8 139.48 2201.32 150.744 2231.7 173.272C2262.08 195.8 2282.39 226.52 2292.63 265.432H2196.37C2189.2 250.413 2178.96 238.979 2165.65 231.128C2152.68 223.277 2137.83 219.352 2121.11 219.352C2094.14 219.352 2072.3 228.739 2055.57 247.512C2038.85 266.285 2030.48 291.373 2030.48 322.776C2030.48 354.179 2038.85 379.267 2055.57 398.04C2072.3 416.813 2094.14 426.2 2121.11 426.2C2137.83 426.2 2152.68 422.275 2165.65 414.424C2178.96 406.573 2189.2 395.139 2196.37 380.12H2292.63C2282.39 419.032 2262.08 449.752 2231.7 472.28C2201.32 494.467 2164.8 505.56 2122.13 505.56C2087.32 505.56 2056.08 497.88 2028.44 482.52C2001.13 466.819 1979.8 445.144 1964.44 417.496C1949.08 389.848 1941.4 358.275 1941.4 322.776ZM2476.29 507.096C2448.3 507.096 2423.04 501.123 2400.52 489.176C2378.33 477.229 2360.75 460.163 2347.78 437.976C2335.15 415.789 2328.84 389.848 2328.84 360.152C2328.84 330.797 2335.32 305.027 2348.29 282.84C2361.26 260.312 2379.01 243.075 2401.54 231.128C2424.07 219.181 2449.33 213.208 2477.32 213.208C2505.31 213.208 2530.56 219.181 2553.09 231.128C2575.62 243.075 2593.37 260.312 2606.34 282.84C2619.31 305.027 2625.8 330.797 2625.8 360.152C2625.8 389.507 2619.14 415.448 2605.83 437.976C2592.86 460.163 2574.94 477.229 2552.07 489.176C2529.54 501.123 2504.28 507.096 2476.29 507.096ZM2476.29 431.32C2493.02 431.32 2507.18 425.176 2518.79 412.888C2530.73 400.6 2536.71 383.021 2536.71 360.152C2536.71 337.283 2530.91 319.704 2519.3 307.416C2508.04 295.128 2494.04 288.984 2477.32 288.984C2460.25 288.984 2446.08 295.128 2434.82 307.416C2423.56 319.363 2417.92 336.941 2417.92 360.152C2417.92 383.021 2423.39 400.6 2434.31 412.888C2445.57 425.176 2459.57 431.32 2476.29 431.32ZM2846.32 214.232C2879.77 214.232 2906.4 225.155 2926.2 247C2946.33 268.504 2956.4 298.2 2956.4 336.088V503H2869.36V347.864C2869.36 328.749 2864.41 313.901 2854.52 303.32C2844.62 292.739 2831.31 287.448 2814.58 287.448C2797.85 287.448 2784.54 292.739 2774.64 303.32C2764.75 313.901 2759.8 328.749 2759.8 347.864V503H2672.24V217.304H2759.8V255.192C2768.67 242.563 2780.62 232.664 2795.64 225.496C2810.65 217.987 2827.55 214.232 2846.32 214.232ZM3191.32 214.232C3224.77 214.232 3251.4 225.155 3271.2 247C3291.33 268.504 3301.4 298.2 3301.4 336.088V503H3214.36V347.864C3214.36 328.749 3209.41 313.901 3199.52 303.32C3189.62 292.739 3176.31 287.448 3159.58 287.448C3142.85 287.448 3129.54 292.739 3119.64 303.32C3109.75 313.901 3104.8 328.749 3104.8 347.864V503H3017.24V217.304H3104.8V255.192C3113.67 242.563 3125.62 232.664 3140.64 225.496C3155.65 217.987 3172.55 214.232 3191.32 214.232ZM3631.56 355.544C3631.56 363.736 3631.04 372.269 3630.02 381.144H3431.88C3433.24 398.893 3438.87 412.547 3448.77 422.104C3459.01 431.32 3471.47 435.928 3486.15 435.928C3507.99 435.928 3523.18 426.712 3531.72 408.28H3624.9C3620.12 427.053 3611.42 443.949 3598.79 458.968C3586.5 473.987 3570.97 485.763 3552.2 494.296C3533.42 502.829 3512.43 507.096 3489.22 507.096C3461.23 507.096 3436.31 501.123 3414.47 489.176C3392.62 477.229 3375.56 460.163 3363.27 437.976C3350.98 415.789 3344.84 389.848 3344.84 360.152C3344.84 330.456 3350.81 304.515 3362.76 282.328C3375.04 260.141 3392.11 243.075 3413.96 231.128C3435.8 219.181 3460.89 213.208 3489.22 213.208C3516.87 213.208 3541.44 219.011 3562.95 230.616C3584.45 242.221 3601.18 258.776 3613.12 280.28C3625.41 301.784 3631.56 326.872 3631.56 355.544ZM3541.96 332.504C3541.96 317.485 3536.84 305.539 3526.6 296.664C3516.36 287.789 3503.56 283.352 3488.2 283.352C3473.52 283.352 3461.06 287.619 3450.82 296.152C3440.92 304.685 3434.78 316.803 3432.39 332.504H3541.96ZM3660.34 360.152C3660.34 330.456 3666.31 304.515 3678.26 282.328C3690.54 260.141 3707.44 243.075 3728.94 231.128C3750.79 219.181 3775.71 213.208 3803.7 213.208C3839.54 213.208 3869.4 222.595 3893.3 241.368C3917.53 260.141 3933.4 286.595 3940.91 320.728H3847.73C3839.88 298.883 3824.69 287.96 3802.16 287.96C3786.12 287.96 3773.32 294.275 3763.76 306.904C3754.2 319.192 3749.42 336.941 3749.42 360.152C3749.42 383.363 3754.2 401.283 3763.76 413.912C3773.32 426.2 3786.12 432.344 3802.16 432.344C3824.69 432.344 3839.88 421.421 3847.73 399.576H3940.91C3933.4 433.027 3917.53 459.309 3893.3 478.424C3869.06 497.539 3839.19 507.096 3803.7 507.096C3775.71 507.096 3750.79 501.123 3728.94 489.176C3707.44 477.229 3690.54 460.163 3678.26 437.976C3666.31 415.789 3660.34 389.848 3660.34 360.152ZM4146.98 428.76V503H4102.43C4070.69 503 4045.94 495.32 4028.19 479.96C4010.44 464.259 4001.57 438.829 4001.57 403.672V290.008H3966.75V217.304H4001.57V147.672H4089.12V217.304H4146.46V290.008H4089.12V404.696C4089.12 413.229 4091.17 419.373 4095.26 423.128C4099.36 426.883 4106.19 428.76 4115.74 428.76H4146.98Z" fill="white"/>
</svg>
