<svg width="40" height="40" viewBox="0 0 40 40" fill="none" xmlns="http://www.w3.org/2000/svg">
<path d="M34.997 5V8.33333C34.997 24.379 26.0428 31.6667 14.9971 31.6667L11.8277 31.6665C12.1802 26.646 13.7427 23.608 17.8235 19.9982C19.8302 18.223 19.6612 17.1982 18.6718 17.7868C11.8658 21.836 8.48555 27.3103 8.33564 36.0503L8.3304 36.6667H4.99707C4.99707 34.3955 5.18992 32.3328 5.57334 30.447C5.18915 28.2902 4.99707 25.3627 4.99707 21.6667C4.99707 12.4619 12.459 5 21.6637 5C24.997 5 28.3303 6.66667 34.997 5Z" fill="url(#paint0_linear_3_4391)"/>
<defs>
<linearGradient id="paint0_linear_3_4391" x1="4.99707" y1="20.8333" x2="34.997" y2="20.8333" gradientUnits="userSpaceOnUse">
<stop stop-color="#56CCF2"/>
<stop offset="1" stop-color="#2F80ED"/>
</linearGradient>
</defs>
</svg>
